<svg width="591" height="303" viewBox="0 0 591 303" fill="none" xmlns="http://www.w3.org/2000/svg" style="width: 100%; height: 100%;">
<g clip-path="url(#clip0_35_1577)">
<path d="M107.934 101.021C101.332 91.022 95.71 82.744 89.107 72.745C88.093 71.209 85.669 68.364 83.908 69.86C82.654 70.926 83.482 75.892 89.224 83.225C83.612 75.275 80.899 71.826 75.287 63.876C74.577 62.871 73.655 61.755 72.53 61.871C71.378 61.989 70.706 63.45 70.861 64.725C71.017 66 71.754 67.107 72.465 68.149C76.548 74.125 76.32 74.896 80.403 80.872C75.259 73.012 75.028 71.899 69.015 64.818C68.019 63.645 66.591 62.374 65.309 63.019C62.471 64.956 66.426 70.019 69.422 74.021C71.138 76.314 72.798 78.476 77.035 83.769C72.61 78.655 71.062 76.329 66.626 71.227C65.793 70.269 64.889 69.265 63.732 68.956C62.575 68.647 61.145 69.406 61.129 70.707C61.119 71.535 61.653 72.258 62.156 72.894C66.82 78.795 68.03 81.333 72.694 87.233C69.248 83.001 68.878 82.502 64.757 79.089C63.533 78.076 61.627 77.169 60.73 78.462C59.902 79.657 60.918 81.375 61.883 82.517C71.381 93.759 79.089 101.347 88.587 112.589" fill="white"></path>
<path d="M107.934 101.021C101.332 91.022 95.71 82.744 89.107 72.745C88.093 71.209 85.669 68.364 83.908 69.86C82.654 70.926 83.482 75.892 89.224 83.225C83.612 75.275 80.899 71.826 75.287 63.876C74.577 62.871 73.655 61.755 72.53 61.871C71.378 61.989 70.706 63.45 70.861 64.725C71.017 66 71.754 67.107 72.465 68.149C76.548 74.125 76.32 74.896 80.403 80.872C75.259 73.012 75.028 71.899 69.015 64.818C68.019 63.645 66.591 62.374 65.309 63.019C62.471 64.956 66.426 70.019 69.422 74.021C71.138 76.314 72.798 78.476 77.035 83.769C72.61 78.655 71.062 76.329 66.626 71.227C65.793 70.269 64.889 69.265 63.732 68.956C62.575 68.647 61.145 69.406 61.129 70.707C61.119 71.535 61.653 72.258 62.156 72.894C66.82 78.795 68.03 81.333 72.694 87.233C69.248 83.001 68.878 82.502 64.757 79.089C63.533 78.076 61.627 77.169 60.73 78.462C59.902 79.657 60.918 81.375 61.883 82.517C71.381 93.759 79.089 101.347 88.587 112.589" stroke="#010101" stroke-width="1.5" stroke-linecap="round" stroke-linejoin="round"></path>
<path d="M89.224 83.226C87.729 85.064 86.384 87.063 85.598 89.297C84.811 91.532 84.617 94.032 85.406 96.266" stroke="#010101" stroke-width="1.5" stroke-linecap="round" stroke-linejoin="round"></path>
<path d="M103.018 301.03C94.875 283.006 82.367 266.975 76.314 248.145C74.811 243.468 73.715 238.533 74.351 233.661C76.141 219.952 104.387 206.095 132.073 244.427C147.278 265.479 156.135 278.284 166.89 300.508C140.815 301.329 120.209 301.029 103.017 301.029L103.018 301.03Z" fill="#55D087" stroke="#010101" stroke-width="1.5" stroke-linecap="round" stroke-linejoin="round"></path>
<path d="M107.909 301.03C103.326 293.534 97.651 285.029 93.068 277.533C89.04 270.945 84.921 264.248 79.103 259.172C73.358 254.16 66.073 250.938 58.499 250.059C52.621 249.377 45.926 250.446 42.309 255.13C39.087 259.303 39.207 265.122 40.042 270.328C41.926 282.082 46.729 293.357 54.209 301.264C68.957 301.161 84.798 302.067 107.909 301.03Z" fill="#55D087" stroke="#010101" stroke-width="1.5" stroke-linecap="round" stroke-linejoin="round"></path>
<path d="M86.287 221.381C90.527 226.837 120.2 275.647 135.564 301.062" stroke="#010101" stroke-width="1.5" stroke-linecap="round" stroke-linejoin="round"></path>
<path d="M48.871 251.311C60.336 267.711 69.479 283.882 79.702 301.084" stroke="#010101" stroke-width="1.5" stroke-linecap="round" stroke-linejoin="round"></path>
<path d="M128.991 239.701L117.377 270.528" stroke="#010101" stroke-width="1.5" stroke-linecap="round" stroke-linejoin="round"></path>
<path d="M76.89 249.872L106.628 253.533" stroke="#010101" stroke-width="1.5" stroke-linecap="round" stroke-linejoin="round"></path>
<path d="M89.148 272.497L72.818 289.431" stroke="#010101" stroke-width="1.5" stroke-linecap="round" stroke-linejoin="round"></path>
<path d="M124.199 158.302C121.338 158.501 118.097 158.9 116.411 161.221C115.392 162.624 115.183 164.459 115.474 165.98C126.471 205.545 133.316 244.107 147.738 281.84C150.219 290.765 154.11 289.648 157.302 289.815C165.015 290.218 269.607 289.379 335.107 289.392C337.632 289.392 340.104 287.361 340.365 284.849C340.637 282.227 338.085 274.646 335.061 266.027C328.004 241.397 311.072 186.682 304.292 163.018C303.293 159.531 299.619 157.009 295.994 157.107C266.898 157.894 127.24 158.091 124.199 158.302Z" fill="#EEBBC3" stroke="#010101" stroke-width="1.5" stroke-linecap="round" stroke-linejoin="round"></path>
<path d="M337.508 8.51903C342.444 4.03503 348.987 8.94203 352.589 14.102C355.184 17.819 357.202 22.128 357.241 26.661C357.282 31.399 355.17 36.104 356.05 40.761C356.747 44.449 359.273 47.713 359.365 51.465C359.474 55.883 356.161 60.07 357.087 64.391C357.564 66.616 359.104 68.451 359.969 70.556C361.308 73.813 360.893 77.733 358.901 80.637C336.997 80.105 315.093 79.574 293.011 79.184C284.327 77.669 278.063 77.255 267.115 75.345C265.407 75.047 263.602 74.439 262.581 73.037C261.261 71.224 261.847 68.621 263.041 66.722C264.235 64.823 265.953 63.282 267.033 61.317C270.046 55.838 267.451 47.013 270.563 41.59C272.368 38.445 275.822 36.491 277.542 33.299C279.789 29.129 278.607 23.778 280.73 19.544C283.195 14.629 289.91 14.322 294.707 11.634C300.355 8.46903 305.077 3.52603 311.265 1.62303C315.898 0.198028 320.946 0.646028 325.588 2.04103C330.23 3.43603 335.14 5.55003 337.508 8.51903Z" fill="#010101" stroke="#010101" stroke-width="1.5" stroke-linecap="round" stroke-linejoin="round"></path>
<path d="M124.199 166.331C133.23 202.935 144.253 244.714 155.769 280.47C223.573 280.47 264.806 280.637 330.795 280.637C320.094 247.411 296.086 165.783 296.086 165.783C296.086 165.783 131.241 166.218 124.199 166.331Z" fill="white" stroke="#010101" stroke-width="1.5" stroke-linecap="round" stroke-linejoin="round"></path>
<path d="M336.71 18.4171C336.37 21.4121 339.741 23.2721 341.64 25.6121C343.674 28.1191 344.087 31.5551 344.107 34.7831C344.16 43.0951 341.768 58.4851 338.914 64.0001C335.78 70.0571 331.238 72.3511 324.255 72.3511C323.425 78.3741 322.095 85.1471 320.875 91.1021C328.692 91.2161 336.502 91.8491 344.236 92.9941C343.014 99.5141 341.578 106.064 338.748 112.064C335.975 117.944 331.933 123.137 327.585 127.97C324.012 131.942 320.165 135.743 315.613 138.539C309.243 142.451 301.592 144.237 294.149 143.549C291.347 143.29 288.534 142.674 286.075 141.305C283.72 139.994 281.783 138.047 280.047 135.986C271.415 125.74 267.191 111.05 271.968 98.5331C273.12 95.5141 274.784 92.2851 273.79 89.0791C275.488 87.7611 275.913 86.9701 278.062 86.9701C281.429 86.9701 287.776 88.1021 290.59 87.5191C291.593 84.9021 292.573 81.5511 293.154 78.4011C298.335 79.7881 300.093 79.8801 302.444 79.5971C307.558 78.9821 305.989 70.7801 305.926 68.9101C305.732 63.1631 309.271 63.1401 307.323 52.4141C301.552 56.2241 297.063 48.0481 300.442 42.5261C301.66 40.5361 303.71 39.0541 305.998 38.5991C307.134 38.3731 308.345 38.4001 309.41 38.8541C310.475 39.3081 311.373 40.2261 311.963 41.4431C314.509 41.0941 315.456 37.9021 317.48 36.3171C318.787 35.2941 320.55 34.9621 321.795 33.8641C323.673 32.2061 324.025 29.1121 326.217 27.8981C326.93 27.5031 327.752 27.3671 328.528 27.1171C332.444 25.8561 334.829 21.8021 336.709 18.4141L336.71 18.4171Z" fill="white" stroke="#010101" stroke-width="1.5" stroke-linecap="round" stroke-linejoin="round"></path>
<path d="M230.57 151.241C218.837 174.821 209.672 201.182 201.163 226.107C240.752 234.049 280.155 240.028 319.749 244.21C328.065 210.427 338.883 176.096 346.858 143.696C355.422 155.988 364.776 170.958 374.874 182.547C394.654 205.247 411.557 207.819 425.65 203.395C439.298 199.11 465.793 183.123 478.905 74.812C463.396 72.442 454.001 72.508 439.622 70.311C430.605 104.531 424.264 127.274 414.269 165.207C408.882 158.851 402.522 138.549 383.558 114.08C377.556 106.336 370.27 99.31 361.324 95.316C354.27 92.166 346.332 91.024 338.676 92.055C325.99 104.683 310.974 115.803 298.811 128.279C292.245 114.301 284.793 101.977 279.016 87.059C252.278 84.451 235.37 94.368 218.256 107.214C201.142 120.06 186.559 136.009 169.582 149.036C146.46 128.832 126.037 108.49 107.424 86.608C99.489 96.74 88.013 105.979 79.197 117.479C88.485 127.041 115.445 157.989 135.734 174.878C145.382 182.909 157.158 190.8 169.601 189.145C175.165 188.405 180.772 187.017 185.681 184.295C196.727 178.168 215.637 163.842 230.569 151.241H230.57Z" fill="#EEBBC3" stroke="#010101" stroke-width="1.5" stroke-linecap="round" stroke-linejoin="round"></path>
<path d="M313.174 69.3411C316.826 72.0711 321.791 72.4521 325.588 72.3221" stroke="#010101" stroke-width="1.5" stroke-linecap="round" stroke-linejoin="round"></path>
<path d="M336.201 39.998C337.275 43.216 338.529 46.374 339.954 49.452C338.565 50.676 336.866 51.545 335.061 51.955" stroke="#010101" stroke-width="1.5" stroke-linecap="round" stroke-linejoin="round"></path>
<path d="M201.507 226.256C196.194 243.673 190.044 261.662 183.579 279.762C202.844 279.724 216.987 279.814 240.124 279.814C243.79 275.185 250.625 267.801 250.625 267.801C250.625 267.801 253.053 276.076 254.934 279.832C274.287 279.778 293.141 278.975 311.353 279.025C312.966 275.321 317.777 252.54 319.749 244.209C309.898 240.308 238.578 222.41 201.507 226.256Z" fill="#010101" stroke="#010101" stroke-width="1.5" stroke-linecap="round" stroke-linejoin="round"></path>
<path d="M299.09 127.828C286.412 167.694 277.327 198.76 265.082 237.264" stroke="#010101" stroke-width="1.5" stroke-linecap="round" stroke-linejoin="round"></path>
<path d="M137.932 3.09094C137.932 3.09094 95.628 3.13794 92.579 3.12594C92.66 17.3129 92.74 29.4999 92.821 43.6879C101.988 43.3579 137.933 43.8979 137.933 43.8979L137.932 3.09094Z" fill="#EEBBC3" stroke="#010101" stroke-width="1.5" stroke-linecap="round" stroke-linejoin="round"></path>
<path d="M1.538 3.12599L0.75 43.897C0.75 43.897 68.113 44.576 92.821 43.687C92.74 29.5 92.66 17.313 92.579 3.12499C72.545 3.04699 1.538 3.12599 1.538 3.12599Z" fill="#E3E3FF" stroke="#010101" stroke-width="1.5" stroke-linecap="round" stroke-linejoin="round"></path>
<path d="M105.769 13.554C103.683 14.809 102.21 17.036 101.871 19.448C101.586 21.48 102.077 23.565 102.96 25.417C103.7 26.968 104.773 28.438 106.307 29.211C107.701 29.913 109.327 29.969 110.887 29.899C112.853 29.811 114.844 29.536 116.636 28.72C118.428 27.904 120.013 26.493 120.703 24.65C121.481 22.571 120.875 20.267 120.01 18.223C117.045 11.223 109.306 11.427 105.77 13.555L105.769 13.554Z" stroke="white" stroke-width="1.5" stroke-linecap="round" stroke-linejoin="round"></path>
<path d="M118.67 28.526L126.009 35.525" stroke="white" stroke-width="1.5" stroke-linecap="round" stroke-linejoin="round"></path>
<path d="M14.6801 32.7471C16.6361 29.3711 17.7971 25.5131 20.2491 22.4781C22.7011 19.4431 27.1631 17.4321 30.5351 19.3951C32.7761 20.7001 33.8761 23.3411 35.8581 25.0121C38.2391 27.0191 41.6451 27.3911 44.7141 26.8631C47.7831 26.3351 50.6511 25.0231 53.5851 23.9791C54.7581 23.5621 56.0561 23.1871 57.2251 23.6161C58.5621 24.1071 59.3551 25.5151 60.6191 26.1711C61.8601 26.8161 63.3491 26.6441 64.7351 26.4571C68.4431 25.9551 72.1501 25.4521 75.8581 24.9501" stroke="#010101" stroke-width="1.5" stroke-linecap="round" stroke-linejoin="round"></path>
<path d="M373.676 54.083C412.298 56.221 451.012 56.69 489.675 55.488C486.9 54.837 485.292 52.398 484.411 50.111C481.768 43.249 485.371 33.41 490.132 27.807C451.164 30.698 411.762 35.754 373.849 40.695C369.07 41.797 368.895 48.043 370.079 51.544C370.516 52.836 371.402 53.959 373.677 54.085L373.676 54.083Z" fill="#B8C1EC" stroke="#010101" stroke-width="1.5" stroke-linecap="round" stroke-linejoin="round"></path>
<path d="M483.587 31.944C486.079 27.547 490.192 27.246 492.705 27.975C499.64 29.986 499.054 44.109 496.63 50.591C495.735 52.984 494.056 55.495 491.513 55.742C489.185 55.969 485.648 55.18 484.283 53.28C480.003 47.32 479.095 39.866 483.586 31.944H483.587Z" fill="#B8C1EC" stroke="#010101" stroke-width="1.5" stroke-linecap="round" stroke-linejoin="round"></path>
<path d="M486.795 34.9211C488.212 31.8621 490.55 31.6531 491.98 32.1601C495.924 33.5591 495.59 43.3831 494.212 47.8931C493.703 49.5581 492.748 51.3041 491.303 51.4771C489.979 51.6351 487.968 51.0861 487.192 49.7641C484.758 45.6181 484.242 40.4331 486.796 34.9221L486.795 34.9211Z" fill="white" stroke="#010101" stroke-width="1.5" stroke-linecap="round" stroke-linejoin="round"></path>
<path d="M469.573 73.566C471.046 70.351 472.338 63.169 471.156 56.136C471.057 55.948 456.257 55.998 449.455 55.781C448.601 54.421 447.708 50.661 446.959 49.451C446.671 48.985 446.351 48.513 445.879 48.233C445.048 47.74 443.919 47.998 443.205 48.649C442.491 49.3 442.133 50.261 441.972 51.213C441.633 53.215 442.806 58.758 443.227 60.745C443.975 64.274 444.75 68.33 446.731 71.275C451.735 71.613 469.571 73.565 469.571 73.565L469.573 73.566Z" fill="white" stroke="#010101" stroke-width="1.5" stroke-linecap="round" stroke-linejoin="round"></path>
<path d="M517.742 166.289C499.324 167.716 481.85 179.624 474.672 196.646C467.494 213.668 471.492 235.055 484.992 247.665C490.589 252.893 497.5 256.556 504.691 259.192C513.174 262.301 522.245 264.057 531.259 263.442C540.273 262.827 549.232 259.74 556.19 253.977C568.188 244.038 572.759 227.107 570.737 211.659C568.034 191.012 548.273 163.549 517.742 166.289Z" fill="#B8C1EC" stroke="#010101" stroke-width="1.5" stroke-linecap="round" stroke-linejoin="round"></path>
<path d="M518.626 178.769C504.944 179.829 491.962 188.676 486.629 201.321C481.296 213.966 484.267 229.855 494.296 239.223C498.454 243.107 503.588 245.828 508.931 247.786C515.233 250.096 521.972 251.401 528.669 250.943C535.366 250.486 542.021 248.193 547.19 243.911C556.103 236.528 559.499 223.949 557.997 212.473C555.989 197.134 541.308 176.732 518.627 178.768L518.626 178.769Z" fill="white" stroke="#010101" stroke-width="1.5" stroke-linecap="round" stroke-linejoin="round"></path>
<path d="M519.839 196.445C513.081 196.968 506.669 201.338 504.035 207.584C501.401 213.829 502.868 221.677 507.822 226.304C509.876 228.222 512.411 229.566 515.05 230.534C518.163 231.675 521.491 232.319 524.799 232.093C528.106 231.867 531.394 230.735 533.947 228.62C538.349 224.973 540.027 218.761 539.285 213.092C538.293 205.516 531.042 195.439 519.84 196.445H519.839Z" fill="#B8C1EC" stroke="#010101" stroke-width="1.5" stroke-linecap="round" stroke-linejoin="round"></path>
<path d="M520.671 208.197C518.372 208.375 516.19 209.862 515.294 211.987C514.398 214.112 514.897 216.782 516.582 218.356C517.281 219.009 518.143 219.466 519.041 219.795C520.1 220.183 521.232 220.402 522.358 220.326C523.483 220.249 524.602 219.864 525.47 219.144C526.968 217.903 527.538 215.79 527.286 213.861C526.949 211.284 524.482 207.855 520.67 208.197H520.671Z" fill="white" stroke="#010101" stroke-width="1.5" stroke-linecap="round" stroke-linejoin="round"></path>
<path d="M522.113 213.035C540.609 200.366 559.339 188.038 578.289 176.06" stroke="#010101" stroke-width="1.5" stroke-linecap="round" stroke-linejoin="round"></path>
<path d="M566.579 183.236C567.778 179.939 568.87 176.603 569.853 173.236C570.339 173.406 576.37 168.96 584.974 164.746C584.58 166.718 584.186 171.19 583.792 173.163C585.89 173.786 587.962 174.5 589.999 175.3C587.099 179.174 575.718 184.873 575.718 184.873C575.718 184.873 570.178 183.688 566.578 183.237L566.579 183.236Z" fill="#EEBBC3" stroke="#010101" stroke-width="1.5" stroke-linecap="round" stroke-linejoin="round"></path>
<path d="M414.782 289.859H161.256C158.226 289.859 155.769 292.316 155.769 295.346V295.347C155.769 298.377 158.226 300.834 161.256 300.834H414.782C417.812 300.834 420.269 298.377 420.269 295.347V295.346C420.269 292.316 417.812 289.859 414.782 289.859Z" fill="#EEBBC3" stroke="#010101" stroke-width="1.5" stroke-linecap="round" stroke-linejoin="round"></path>
<path d="M267.438 289.392C265.748 290.128 264.166 291.213 263.117 292.73C262.068 294.247 261.612 296.232 262.183 297.985C262.754 299.738 264.463 301.138 266.305 301.085" stroke="#010101" stroke-width="1.5" stroke-linecap="round" stroke-linejoin="round"></path>
<path d="M332.989 289.751C333.372 291.645 333.922 293.775 335.621 294.696C336.595 295.224 337.757 295.232 338.865 295.226C345.432 295.195 352 295.164 358.567 295.132C359.029 295.13 359.503 295.125 359.933 294.958C361.634 294.297 361.53 291.827 362.623 290.366" stroke="#010101" stroke-width="1.5" stroke-linecap="round" stroke-linejoin="round"></path>
<path d="M50.416 195.4C46.383 198.777 46.997 197.161 42.964 200.538" stroke="#010101" stroke-width="1.5" stroke-linecap="round" stroke-linejoin="round"></path>
<path d="M370.29 231.555C371.201 234.537 372.112 237.519 373.024 240.5" stroke="#010101" stroke-width="1.5" stroke-linecap="round" stroke-linejoin="round"></path>
<path d="M449.456 55.781C449.787 57.084 450.304 58.116 450.578 59.412C452.935 58.623 455.619 58.872 457.79 60.083C459.961 61.293 461.584 63.446 462.151 65.866" stroke="#010101" stroke-width="1.5" stroke-linecap="round" stroke-linejoin="round"></path>
<path d="M510.575 114.591C510.019 114.766 509.742 115.502 510.012 116.018C510.282 116.534 510.999 116.74 511.521 116.48C512.038 116.222 512.308 115.533 512.061 115.01C511.814 114.487 511.133 114.415 510.575 114.591Z" fill="#010101" stroke="#010101" stroke-width="1.5" stroke-linecap="round" stroke-linejoin="round"></path>
<path d="M152.494 72.463C151.854 72.664 151.535 73.512 151.845 74.107C152.155 74.702 152.982 74.938 153.583 74.639C154.179 74.342 154.489 73.548 154.205 72.946C153.921 72.344 153.137 72.261 152.494 72.463Z" fill="#010101" stroke="#010101" stroke-width="1.5" stroke-linecap="round" stroke-linejoin="round"></path>
<path d="M302.543 142.592C301.903 142.793 301.584 143.641 301.894 144.236C302.204 144.831 303.031 145.067 303.632 144.768C304.228 144.471 304.538 143.677 304.254 143.075C303.97 142.473 303.186 142.39 302.543 142.592Z" fill="#010101" stroke="#010101" stroke-width="1.5" stroke-linecap="round" stroke-linejoin="round"></path>
<path d="M294.794 169.083C294.154 169.284 293.835 170.132 294.145 170.727C294.455 171.322 295.282 171.558 295.883 171.259C296.479 170.962 296.789 170.168 296.505 169.566C296.221 168.964 295.437 168.881 294.794 169.083Z" fill="#010101" stroke="#010101" stroke-width="1.5" stroke-linecap="round" stroke-linejoin="round"></path>
<path d="M287.494 193.444C286.854 193.645 286.535 194.493 286.845 195.088C287.155 195.683 287.982 195.919 288.583 195.62C289.179 195.323 289.489 194.529 289.205 193.927C288.921 193.325 288.137 193.242 287.494 193.444Z" fill="#010101" stroke="#010101" stroke-width="1.5" stroke-linecap="round" stroke-linejoin="round"></path>
<path d="M280.562 217.71C279.922 217.911 279.603 218.759 279.913 219.354C280.223 219.949 281.05 220.185 281.651 219.886C282.247 219.589 282.557 218.795 282.273 218.193C281.989 217.591 281.205 217.508 280.562 217.71Z" fill="#010101" stroke="#010101" stroke-width="1.5" stroke-linecap="round" stroke-linejoin="round"></path>
</g>
<defs>
<clipPath id="clip0_35_1577">
<rect width="590.75" height="302.283" fill="white"></rect>
</clipPath>
</defs>
</svg>